<svg width="71" height="61" viewBox="0 0 71 61" fill="none" xmlns="http://www.w3.org/2000/svg">
<path d="M6.19893 31.3095C6.21242 31.323 6.22591 31.3365 6.2394 31.35L13.6591 38.365C12.1212 40.8068 12.4045 44.0849 14.536 46.2164C15.7502 47.4306 17.3285 48.0376 18.9069 48.0646C18.9609 49.6835 19.6084 51.2888 20.8495 52.5299C22.0772 53.7576 23.7095 54.4456 25.4498 54.4726C25.4767 56.1454 26.1243 57.7912 27.3924 59.0728C29.8611 61.6495 34.313 61.6495 36.7952 59.0728L40.8289 55.0392L41.7327 55.943C44.3499 58.5602 48.6263 58.5602 51.2435 55.943L51.2974 55.8891C52.5655 54.621 53.2131 52.9751 53.267 51.3023C55.0073 51.3158 56.7341 50.6548 58.0561 49.3327L58.1101 49.2788C59.3647 48.0241 60.0662 46.3648 60.0797 44.5841C61.7795 44.5706 63.4658 43.9096 64.7609 42.6145L64.8148 42.5605C67.432 39.9434 67.432 35.6669 64.8148 33.0498L64.1268 32.3618L64.4776 32.011C81.3001 13.7315 56.2889 -11.2528 38.0228 5.55628L34.5693 9.00983L31.48 6.00147C24.4919 -0.946104 13.16 -0.946104 6.19893 6.01496C-0.77562 12.9895 -0.77562 24.335 6.19893 31.3095ZM61.8874 39.7545C60.8352 40.8068 59.1354 40.8068 58.0966 39.7545L54.3867 36.0446C53.348 35.0464 53.348 33.2521 54.3867 32.2538L54.4407 32.1999C55.439 31.1611 57.2332 31.1611 58.2315 32.1999L61.9414 35.9097C62.9936 36.962 62.9936 38.6618 61.9414 39.7006L61.8874 39.7545ZM51.3784 46.4727L45.3077 40.4021C44.2689 39.4038 44.2689 37.6095 45.3077 36.6112L45.3616 36.5573C46.4139 35.505 48.1137 35.505 49.1524 36.5573L51.4998 38.9046L55.2096 42.6145C56.2484 43.6128 56.2484 45.407 55.2096 46.4053L55.1557 46.4593C54.1304 47.5115 52.4306 47.5115 51.3784 46.4727ZM44.5657 53.0831L42.1644 50.6818C41.1256 49.6835 41.1256 47.8892 42.1644 46.8909L42.2184 46.837C43.2706 45.7847 44.9704 45.7847 46.0092 46.837L48.4105 49.2383C49.4627 50.2905 49.4627 51.9903 48.4105 53.0291L48.3565 53.0831C47.3177 54.1218 45.618 54.1218 44.5657 53.0831ZM17.396 40.1322L31.2776 26.2506C31.3451 26.1831 31.4665 26.1831 31.5339 26.2506L33.7734 28.49C36.4714 31.3095 41.3415 31.3095 44.0396 28.49C46.8861 25.7649 46.8456 20.8274 43.9586 18.1428L37.4697 11.8428L40.8828 8.42974C46.6028 2.7098 55.8977 2.7098 61.6176 8.42974C67.3375 14.1497 67.3375 23.4446 61.6176 29.1645L61.2668 29.5153L61.0915 29.3399C58.5823 26.7363 54.0765 26.7363 51.5807 29.3399L51.5268 29.3939C50.7173 30.2033 50.1507 31.1746 49.8405 32.2269C47.3987 31.2286 44.4982 31.7142 42.5286 33.6838L42.4747 33.7378C40.1543 35.9637 39.8575 39.8489 41.7597 42.4121C40.8963 42.7359 40.0734 43.2485 39.3719 43.95L39.3179 44.004C37.2269 46.0276 36.7413 49.4406 38.1577 51.9768L33.9352 56.1993C32.9639 57.2111 31.2237 57.2111 30.2524 56.1993C29.2271 55.1741 29.2406 53.5147 30.2658 52.503L34.0162 48.7526C34.8121 47.9567 34.8121 46.6886 34.0162 45.8927C33.2203 45.0967 31.9522 45.0967 31.1562 45.8927L27.3924 49.6565C26.4211 50.6683 24.6808 50.6683 23.7095 49.6565C22.6977 48.6447 22.6977 46.9989 23.7095 45.9736L27.5003 42.1828C28.2962 41.3869 28.2962 40.1188 27.5003 39.3228C26.7044 38.5269 25.4363 38.5269 24.6403 39.3228C24.6403 39.3228 20.6472 43.316 20.6337 43.3295C19.7433 44.2198 18.2998 44.2198 17.4095 43.3295C16.5056 42.4661 16.5056 41.0226 17.396 40.1322ZM9.0589 8.88842C14.4551 3.49225 23.2508 3.49225 28.647 8.9154L41.1391 21.0568C41.7597 21.6639 42.1104 22.4733 42.1239 23.3367C42.1509 26.2101 38.6704 27.6536 36.6333 25.63L34.3939 23.3906C32.8155 21.7448 29.996 21.7448 28.4177 23.3906L16.4112 35.3971L9.04541 28.4226C3.66273 23.0399 3.66273 14.2711 9.0589 8.88842Z" fill="#2C4D82"/>
</svg>
