<svg width="60" height="51" viewBox="0 0 60 51" fill="none" xmlns="http://www.w3.org/2000/svg">
<path d="M1.8572 24.824C2.10216 24.8241 2.34249 24.7573 2.55221 24.6307L22.2248 12.8263L36.4536 19.2937C36.6659 19.3904 36.8997 19.4305 37.1321 19.4101C37.3646 19.3898 37.5878 19.3096 37.7801 19.1774L56.6684 6.16421L55.9923 9.52298C55.9219 9.8746 55.994 10.2398 56.1928 10.5383C56.3916 10.8367 56.7008 11.044 57.0524 11.1145C57.1415 11.1318 57.2321 11.1404 57.3228 11.1402C57.6343 11.1399 57.9362 11.0321 58.1774 10.835C58.4186 10.6379 58.5843 10.3636 58.6466 10.0584L59.9717 3.43284C60.0436 3.08159 59.9729 2.71618 59.7754 2.41698C59.5779 2.11777 59.2696 1.90926 58.9184 1.83729L52.2928 0.512177C52.1188 0.476663 51.9395 0.475772 51.7651 0.509555C51.5908 0.543339 51.4248 0.611134 51.2766 0.709071C51.1284 0.807007 51.001 0.933167 50.9016 1.08035C50.8022 1.22753 50.7328 1.39285 50.6973 1.56686C50.6617 1.74088 50.6609 1.92019 50.6946 2.09455C50.7284 2.26891 50.7962 2.43491 50.8941 2.58307C50.9921 2.73123 51.1182 2.85865 51.2654 2.95805C51.4126 3.05746 51.5779 3.1269 51.7519 3.16241L55.2473 3.86283L36.8782 16.515L22.6994 10.072C22.4999 9.9812 22.2813 9.9403 22.0625 9.95278C21.8437 9.96526 21.6311 10.0308 21.4433 10.1436L1.16083 22.3131C0.907536 22.4654 0.71112 22.6965 0.601642 22.971C0.492164 23.2456 0.475655 23.5484 0.554642 23.8332C0.633629 24.118 0.803761 24.3691 1.039 24.5481C1.27424 24.727 1.56163 24.8239 1.8572 24.824Z" fill="#2C4D82"/>
<path d="M58.6478 47.8108V18.0633C58.6478 17.346 58.3629 16.6582 57.8557 16.151C57.3486 15.6439 56.6607 15.3589 55.9435 15.3589H49.1827C48.4655 15.3589 47.7776 15.6439 47.2704 16.151C46.7633 16.6582 46.4784 17.346 46.4784 18.0633V47.8108H43.774V27.5284C43.774 26.8112 43.4891 26.1233 42.982 25.6162C42.4748 25.109 41.787 24.8241 41.0697 24.8241H34.3089C33.5917 24.8241 32.9038 25.109 32.3967 25.6162C31.8895 26.1233 31.6046 26.8112 31.6046 27.5284V47.8108H28.9003V23.4719C28.9003 22.7547 28.6154 22.0668 28.1082 21.5597C27.601 21.0525 26.9132 20.7676 26.1959 20.7676H19.4351C18.7179 20.7676 18.0301 21.0525 17.5229 21.5597C17.0157 22.0668 16.7308 22.7547 16.7308 23.4719V47.8108H14.0265V31.5849C14.0265 30.8677 13.7416 30.1798 13.2344 29.6726C12.7273 29.1655 12.0394 28.8806 11.3222 28.8806H4.56137C3.84414 28.8806 3.15628 29.1655 2.64912 29.6726C2.14196 30.1798 1.85704 30.8677 1.85704 31.5849V47.8108C1.49843 47.8108 1.1545 47.9533 0.900922 48.2069C0.647342 48.4604 0.504883 48.8044 0.504883 49.163C0.504883 49.5216 0.647342 49.8655 0.900922 50.1191C1.1545 50.3727 1.49843 50.5151 1.85704 50.5151H58.6478C59.0064 50.5151 59.3504 50.3727 59.6039 50.1191C59.8575 49.8655 60 49.5216 60 49.163C60 48.8044 59.8575 48.4604 59.6039 48.2069C59.3504 47.9533 59.0064 47.8108 58.6478 47.8108ZM49.1827 18.0633H55.9435V47.8108H49.1827V18.0633ZM34.3089 27.5284H41.0697V47.8108H34.3089V27.5284ZM19.4351 23.4719H26.1959V47.8108H19.4351V23.4719ZM4.56137 31.5849H11.3222V47.8108H4.56137V31.5849Z" fill="#2C4D82"/>
</svg>
