<svg width="76" height="61" viewBox="0 0 76 61" fill="none" xmlns="http://www.w3.org/2000/svg">
<path d="M52.1492 43.1527C51.5765 42.5915 50.6573 42.601 50.096 43.1736L50.0547 43.2157C49.4936 43.7885 49.503 44.7077 50.0758 45.269C50.3583 45.5459 50.7252 45.6838 51.0918 45.6838C51.4683 45.6838 51.8446 45.5382 52.1291 45.2481L52.1703 45.206C52.7314 44.6332 52.722 43.714 52.1492 43.1527Z" fill="#2C4D82"/>
<path d="M67.7677 27.9311H63.9095V24.0728C63.9095 23.2709 63.2594 22.6209 62.4576 22.6209C61.6557 22.6209 61.0057 23.2709 61.0057 24.0728V27.9311H57.1474C56.3455 27.9311 55.6955 28.5811 55.6955 29.383C55.6955 30.1849 56.3455 30.8349 57.1474 30.8349H61.0057V34.6931C61.0057 35.495 61.6557 36.145 62.4576 36.145C63.2594 36.145 63.9095 35.495 63.9095 34.6931V30.8349H67.7677C68.5696 30.8349 69.2196 30.1849 69.2196 29.383C69.2196 28.5811 68.5696 27.9311 67.7677 27.9311Z" fill="#2C4D82"/>
<path d="M67.2044 17.5212C65.8483 7.49876 57.4697 0 47.5247 0C42.5044 0 37.8083 1.87135 34.1456 5.30146C30.4827 1.87135 25.7866 0 20.7665 0C9.81049 0 0.897156 9.12561 0.897156 20.3425C0.897156 22.5587 1.54369 25.0428 2.82992 27.7848H2.34905C1.54717 27.7848 0.897156 28.4348 0.897156 29.2367C0.897156 30.0386 1.54717 30.6886 2.34905 30.6886H4.37619C7.0879 35.2795 11.3762 40.5001 17.2236 46.3143C25.148 54.1939 33.1834 60.3585 33.2637 60.42C33.5239 60.619 33.8347 60.7185 34.1456 60.7185C34.4564 60.7185 34.7671 60.619 35.0275 60.42C35.0887 60.3731 41.2343 55.6605 48.0449 49.2393C48.6284 48.6892 48.6554 47.7703 48.1053 47.1869C47.5553 46.6036 46.6364 46.5764 46.0529 47.1265C40.8589 52.0236 36.0637 55.9064 34.1457 57.4234C31.8666 55.6201 25.5215 50.4727 19.2503 44.2346C14.2296 39.2403 10.3862 34.6889 7.78771 30.6886H20.786C21.4337 30.6886 22.0029 30.2596 22.1815 29.6371L24.7183 20.7948L31.7431 43.3018C31.9325 43.9081 32.4939 44.3212 33.1291 44.3212C33.7643 44.3212 34.3258 43.9081 34.515 43.3018L38.4053 30.8339H44.8872C45.689 30.8339 46.3391 30.1839 46.3391 29.382C46.3391 28.5802 45.689 27.9301 44.8872 27.9301H37.3374C36.7022 27.9301 36.1406 28.3431 35.9515 28.9495L33.1287 37.9956L26.0455 15.3015C25.8544 14.6893 25.2855 14.2735 24.6426 14.2823C24.0013 14.2897 23.4408 14.7172 23.2638 15.3338L19.6917 27.7849H6.06939C4.56857 24.9514 3.80095 22.454 3.80095 20.3425C3.80095 10.7268 11.4116 2.90379 20.7665 2.90379C25.4683 2.90379 29.8409 4.83656 33.0784 8.34579C33.3534 8.64372 33.7402 8.81316 34.1456 8.81316C34.551 8.81316 34.9379 8.64372 35.2127 8.34579C38.4503 4.83656 42.8228 2.90379 47.5247 2.90379C55.6128 2.90379 62.4891 8.73664 64.1235 16.715C63.578 16.6437 63.0221 16.6064 62.4574 16.6064C55.4124 16.6064 49.6807 22.338 49.6807 29.3831C49.6807 36.4281 55.4124 42.1597 62.4574 42.1597C69.5025 42.1597 75.2341 36.4281 75.2341 29.3831C75.2343 24.0145 71.9058 19.4094 67.2044 17.5212ZM62.4576 39.256C57.0137 39.256 52.5847 34.8269 52.5847 29.3831C52.5847 23.9392 57.0137 19.5102 62.4576 19.5102C67.9015 19.5102 72.3305 23.9392 72.3305 29.3831C72.3305 34.8269 67.9015 39.256 62.4576 39.256Z" fill="#2C4D82"/>
</svg>
