<svg width="66" height="72" viewBox="0 0 66 72" fill="none" xmlns="http://www.w3.org/2000/svg">
<path d="M28.8513 23.6702C28.8513 19.1688 25.1872 15.5137 20.6961 15.5137C16.1947 15.5137 12.5402 19.1784 12.5402 23.6702C12.5402 28.1715 16.2043 31.8254 20.6961 31.8254C25.1872 31.8254 28.8513 28.1715 28.8513 23.6702ZM15.6819 23.6702C15.6819 20.9118 17.9275 18.6656 20.6858 18.6656C23.4436 18.6656 25.6897 20.9118 25.6897 23.6702C25.6897 26.4279 23.4436 28.6735 20.6858 28.6735C17.9275 28.6735 15.6819 26.4279 15.6819 23.6702Z" fill="#2C4D82"/>
<path d="M19.9467 54.0571H13.2094V44.3551C13.2094 43.6455 12.6383 43.0743 11.9293 43.0743C11.2197 43.0743 10.6485 43.6455 10.6485 44.3551V54.0571H7.7824C7.65481 54.0571 7.51638 53.9584 7.51638 53.7911V44.3153C7.51638 40.1101 10.944 36.6813 15.1498 36.6813H26.0833C27.6109 36.6813 28.9699 37.1056 30.2404 37.9717C30.5161 38.1589 30.8218 38.2473 31.127 38.2473C31.6295 38.2473 32.1218 38.0114 32.427 37.5588C32.9199 36.8396 32.7327 35.8639 32.0135 35.3716C30.2302 34.1504 28.2314 33.5299 26.0833 33.5299H15.1498C9.2004 33.5299 4.36441 38.3665 4.36441 44.3153V53.7911C4.36441 55.6725 5.90157 57.2097 7.7824 57.2097H19.9467C20.814 57.2097 21.5236 56.5001 21.5236 55.6328C21.5236 54.7661 20.814 54.0571 19.9467 54.0571Z" fill="#2C4D82"/>
<path d="M48.5522 41.1537C52.6888 41.1537 56.0574 37.7845 56.0574 33.6478C56.0574 29.5106 52.6888 26.1426 48.5522 26.1426C44.415 26.1426 41.0457 29.5106 41.0457 33.6478C41.0457 37.7845 44.415 41.1537 48.5522 41.1537ZM48.5522 29.2939C50.9554 29.2939 52.9055 31.2446 52.9055 33.6478C52.9055 36.0511 50.9554 38.0017 48.5522 38.0017C46.1489 38.0017 44.1977 36.0511 44.1977 33.6478C44.1977 31.2446 46.1489 29.2939 48.5522 29.2939Z" fill="#2C4D82"/>
<path d="M60.3518 45.5955C58.5197 43.7243 56.0677 42.7005 53.4375 42.7005H43.5874C43.5086 42.7005 43.4394 42.7005 43.3605 42.7005C43.1149 42.6903 42.8285 42.6903 42.5041 42.7294C41.6368 42.8281 41.0265 43.6166 41.1252 44.4826C41.2233 45.2807 41.9028 45.8717 42.6912 45.8717C42.7502 45.8717 42.8188 45.8717 42.8784 45.8615C42.9765 45.8519 43.1246 45.8519 43.2913 45.8519H53.4279C55.2004 45.8519 56.8555 46.5416 58.0863 47.8019C59.3178 49.0634 59.9973 50.7571 59.9973 52.5699V61.129C59.9973 61.179 59.978 61.2085 59.9184 61.2085H58.0863V52.6096C58.0863 51.9 57.5152 51.3289 56.8062 51.3289C56.0972 51.3289 55.526 51.9 55.526 52.6096V61.2085H48.4439C47.5766 61.2085 46.867 61.9175 46.867 62.7842C46.867 63.6515 47.5766 64.3598 48.4439 64.3598H59.9184C61.7018 64.3598 63.1498 62.9124 63.1498 61.129V52.5699C63.1595 49.9199 62.1646 47.4474 60.3518 45.5955Z" fill="#2C4D82"/>
<path d="M27.2365 45.5955C27.2365 49.0827 30.0731 51.9097 33.5495 51.9097C37.0367 51.9097 39.8637 49.0731 39.8637 45.5955C39.8637 42.1089 37.0271 39.2825 33.5495 39.2825C30.0635 39.2825 27.2365 42.1185 27.2365 45.5955ZM33.5495 42.4345C35.2931 42.4345 36.7123 43.8525 36.7123 45.5955C36.7123 47.3391 35.2931 48.7583 33.5495 48.7583C31.8065 48.7583 30.3885 47.3391 30.3885 45.5955C30.3885 43.8525 31.8065 42.4345 33.5495 42.4345Z" fill="#2C4D82"/>
<path d="M43.1637 55.5245C41.6367 53.9584 39.588 53.102 37.4014 53.102H29.5314C25 53.102 21.3159 56.7854 21.3159 61.3162V68.1528C21.3159 69.758 22.6268 71.0677 24.232 71.0677H42.6124C44.1977 71.0677 45.4881 69.758 45.4881 68.1528V61.3162C45.5085 59.12 44.6707 57.0617 43.1637 55.5245ZM29.541 56.2534H37.411C38.7412 56.2534 39.9924 56.7758 40.9181 57.7309C41.8438 58.6867 42.356 59.9578 42.356 61.3162V67.9163H41.4104V61.3566C41.4104 60.647 40.8393 60.0758 40.1297 60.0758C39.4207 60.0758 38.8495 60.647 38.8495 61.3566V67.9163H28.4769V61.3566C28.4769 60.647 27.9058 60.0758 27.1968 60.0758C26.4878 60.0758 25.916 60.647 25.916 61.3566V67.9163H24.4781V61.3162C24.4781 58.5194 26.7436 56.2534 29.541 56.2534Z" fill="#2C4D82"/>
<path d="M64.805 17.5233L55.6241 13.0027V2.68913C55.6241 1.18206 54.442 0 52.935 0H46.4438C44.9368 0 43.7553 1.18206 43.7553 2.68913V7.18086L34.5251 2.68913C33.5898 2.23593 32.5257 2.23593 31.5898 2.68913L1.76437 17.2964C0.936808 17.7009 0.591939 18.7054 0.995791 19.5329C1.29071 20.124 1.88234 20.4688 2.50286 20.4688C2.74902 20.4688 3.00482 20.4093 3.24195 20.3009L33.0578 5.69365L44.681 11.3572C44.7002 11.3674 44.7201 11.3771 44.7394 11.3867C44.7496 11.3867 44.7592 11.3963 44.7695 11.3963C44.8086 11.4162 44.8585 11.4258 44.8977 11.4463C44.9073 11.4463 44.9169 11.4559 44.9265 11.4559C44.9765 11.4655 45.0156 11.4854 45.065 11.495H45.0848C45.1342 11.5047 45.1829 11.5143 45.2425 11.5143C45.3009 11.5245 45.3509 11.5245 45.4098 11.5245C45.4586 11.5245 45.5182 11.5245 45.5669 11.5143H45.6067C45.6458 11.5143 45.6957 11.5047 45.7348 11.495H45.7637C45.8137 11.4854 45.8528 11.4752 45.8925 11.4655C45.9118 11.4559 45.9317 11.4559 45.9413 11.4463C45.9714 11.4354 46.0009 11.4258 46.0298 11.4162C46.0496 11.4066 46.0599 11.4066 46.0797 11.3963C46.1188 11.3771 46.1586 11.3572 46.1977 11.3373C46.2073 11.3271 46.2169 11.3271 46.2374 11.3175C46.2669 11.2982 46.306 11.2784 46.3355 11.2591C46.3457 11.2483 46.3554 11.2483 46.365 11.2386C46.4438 11.1803 46.5227 11.1207 46.5913 11.0515C46.6009 11.0418 46.6009 11.0418 46.6118 11.0322C46.6407 11.0027 46.6701 10.963 46.7002 10.9335C46.7002 10.9239 46.7099 10.9239 46.7099 10.9142C46.7394 10.8745 46.7689 10.8354 46.7989 10.7951C46.7989 10.7854 46.8086 10.7854 46.8086 10.7758C46.8278 10.7463 46.8477 10.7072 46.867 10.6771C46.8766 10.6578 46.8874 10.6482 46.897 10.6283C46.9067 10.6187 46.9067 10.6085 46.9169 10.5982C46.9265 10.5886 46.9265 10.579 46.9265 10.5694C46.9362 10.5399 46.956 10.5098 46.9657 10.4707C46.9759 10.4514 46.9861 10.4315 46.9861 10.4111C46.9958 10.3822 47.0054 10.3527 47.015 10.3226C47.0246 10.2931 47.0246 10.2738 47.0349 10.2437C47.0445 10.2143 47.0445 10.195 47.0541 10.1655C47.065 10.1354 47.065 10.1059 47.065 10.077C47.065 10.0566 47.0746 10.0271 47.0746 10.0078C47.0746 9.96809 47.0746 9.9386 47.0842 9.89948C47.0842 9.88985 47.0842 9.88022 47.0842 9.85976V3.33915H52.2651V14.0758C52.2651 14.1059 52.2651 14.145 52.2747 14.1739C52.2747 14.1938 52.2747 14.2239 52.285 14.2431C52.285 14.2726 52.2946 14.3027 52.2946 14.3316C52.2946 14.3611 52.3048 14.3912 52.3144 14.4111C52.3247 14.4303 52.3247 14.4598 52.3343 14.4797C52.3439 14.5092 52.3536 14.5387 52.3638 14.5688C52.3734 14.588 52.3734 14.6079 52.3831 14.6271C52.3939 14.6572 52.4035 14.6867 52.4228 14.7156C52.433 14.7355 52.4426 14.7559 52.4523 14.7752C52.4619 14.8047 52.4818 14.8336 52.492 14.854C52.5016 14.8739 52.5215 14.9028 52.5311 14.9226C52.5407 14.9431 52.5606 14.972 52.5702 14.9919C52.5907 15.0208 52.61 15.0412 52.6298 15.0707C52.6394 15.09 52.6587 15.1098 52.6695 15.1201C52.6888 15.1496 52.7087 15.1688 52.7376 15.1983C52.7478 15.2188 52.7676 15.2284 52.7779 15.238C52.7971 15.2579 52.8266 15.2771 52.8459 15.3072C52.8664 15.3271 52.8856 15.3367 52.8958 15.356C52.9151 15.3759 52.9452 15.3855 52.9651 15.4059C52.9843 15.4252 53.0138 15.4348 53.0331 15.4547C53.0535 15.4643 53.0728 15.474 53.0927 15.4944C53.1221 15.5137 53.1516 15.5239 53.1811 15.5432C53.1908 15.5432 53.1908 15.5528 53.201 15.5528L63.3165 20.5381C63.5537 20.656 63.8095 20.7144 64.0556 20.7144C64.6762 20.7144 65.2678 20.3701 65.5627 19.7785C65.9762 18.9413 65.6319 17.9368 64.805 17.5233Z" fill="#2C4D82"/>
</svg>
