<svg width="64" height="64" viewBox="0 0 64 64" fill="none" xmlns="http://www.w3.org/2000/svg">
<path d="M63.3336 26.5593H61.0382L57.617 28.3594C57.232 28.1469 56.8315 27.9668 56.3995 27.8586L52.096 26.7817V26.2924C53.9999 24.9636 55.1615 22.7685 55.1615 20.4302V18.6446C55.1615 14.6762 52.0521 11.3553 48.2304 11.2396C48.0364 11.2346 47.8454 11.2416 47.6533 11.2511L48.7691 8.63894L43.3598 3.23112L40.1711 5.30656C38.9595 4.62423 37.6782 4.09302 36.3474 3.72043L35.5598 0H27.7748L26.9872 3.72143C25.6565 4.09402 24.3741 4.62523 23.1635 5.30756L19.9748 3.23212L14.57 8.63695L15.6668 11.2511C15.6249 11.2491 15.585 11.2416 15.5431 11.2406C13.5869 11.1837 11.7444 11.8975 10.3448 13.2562C8.9432 14.6139 8.17208 16.4359 8.17208 18.3872V20.4302C8.17208 22.7685 9.33275 24.9627 11.2366 26.2914V26.7817L8.42945 27.4835L3.34135 24.5162H0V45.6831L10.0495 49.0325H12.0067L12.2511 48.1766L15.3316 50.0256C15.382 51.7005 16.7252 53.0482 18.3987 53.107C18.4575 54.7735 19.7967 56.1127 21.4632 56.1716C21.522 57.838 22.8613 59.1772 24.5277 59.2361C24.5886 60.9414 25.9852 62.3121 27.7045 62.3121C28.3429 62.3121 28.9689 62.1131 29.4951 61.7585L30.3999 62.5575C30.967 63.0568 31.6972 63.3336 32.4554 63.3336H32.6444C34.3443 63.3336 35.7274 61.9595 35.7489 60.2651C37.4303 60.2436 38.7919 58.882 38.8134 57.2006C40.4958 57.1791 41.8585 55.8154 41.8779 54.133C43.5758 54.0931 44.9464 52.706 44.9464 50.9987C44.9464 50.8959 44.9414 50.7947 44.931 50.6924L63.3336 41.4919V26.5593ZM53.1185 18.6446V20.4302C53.1185 22.2433 52.1389 23.9371 50.5617 24.8504L50.051 25.1457L50.055 28.3783L55.1585 29.6532L43.9249 35.5658V32.814C43.9249 31.4409 43.3703 30.1834 42.462 29.2542L45.9679 28.3783V25.1432L45.4582 24.8484C43.882 23.9371 42.9034 22.2433 42.9034 20.4302V18.3872C42.9034 16.9941 43.4541 15.6912 44.4551 14.7211C45.4552 13.7515 46.782 13.2288 48.1691 13.2826C50.8979 13.3644 53.1185 15.7701 53.1185 18.6446ZM33.2071 34.7628L28.5828 33.2849C26.4755 32.6095 24.1945 32.5088 22.0373 32.9866L21.4517 33.1163V32.814C21.4517 31.4054 22.4069 30.1824 23.7726 29.8403L29.6238 28.3783V25.1432L29.114 24.8484C27.5379 23.9371 26.5593 22.2433 26.5593 20.4302V18.3872C26.5593 16.9941 27.1099 15.6912 28.111 14.7211C29.111 13.7515 30.4463 13.2288 31.8249 13.2826C34.5538 13.3644 36.7744 15.7701 36.7744 18.6446V20.4302C36.7744 22.2433 35.7947 23.9371 34.2176 24.8504L33.7068 25.1457L33.7108 28.3783L39.5611 29.8403C40.9267 30.1824 41.8819 31.4054 41.8819 32.814V36.6417L41.6295 36.7744H41.0035L34.7234 34.9797C34.2286 34.8396 33.7188 34.7822 33.2071 34.7628ZM21.6806 15.2887C23.599 11.5718 27.4601 9.19359 31.6668 9.19359C35.8337 9.19359 39.6783 11.5399 41.6111 15.2064C41.1248 16.1816 40.8604 17.2614 40.8604 18.3872V20.4302C40.8604 22.7685 42.0211 24.9627 43.9249 26.2914V26.7817L39.8389 27.8047L35.7519 26.7817V26.2924C37.6557 24.9636 38.8174 22.7685 38.8174 20.4302V18.6446C38.8174 14.6762 35.708 11.3553 31.8863 11.2396C29.931 11.1822 28.0875 11.8965 26.6879 13.2552C25.2874 14.6139 24.5162 16.4359 24.5162 18.3872V20.4302C24.5162 22.7685 25.6769 24.9627 27.5808 26.2914V26.7817L23.4947 27.8047L19.4077 26.7817V26.2924C21.3116 24.9636 22.4732 22.7685 22.4732 20.4302V18.6446C22.4732 17.4425 22.1839 16.3013 21.6806 15.2887ZM16.9826 9.11079L20.2461 5.84725L23.1186 7.71669L23.6683 7.37951C25.0454 6.53557 26.5338 5.91757 28.0915 5.54498L28.72 5.39435L29.4308 2.04302H33.9039L34.6126 5.39335L35.2411 5.54349C36.7988 5.91658 38.2872 6.53457 39.6643 7.37851L40.214 7.71569L43.0865 5.84625L46.346 9.1068L45.1873 11.8197C44.3988 12.1589 43.6676 12.6362 43.0311 13.2532C42.9892 13.2941 42.9533 13.338 42.9124 13.3799C40.5058 9.55421 36.2511 7.15057 31.6668 7.15057C27.0496 7.15057 22.783 9.57666 20.3823 13.4412C19.7399 12.7689 18.9757 12.2242 18.1288 11.8436L16.9826 9.11079ZM13.2796 28.3783V25.1432L12.7699 24.8484C11.1937 23.9371 10.2151 22.2433 10.2151 20.4302V18.3872C10.2151 16.9941 10.7658 15.6912 11.7668 14.7211C12.7669 13.7515 14.0966 13.2288 15.4808 13.2826C18.2096 13.3644 20.4302 15.7701 20.4302 18.6446V20.4302C20.4302 22.2433 19.4506 23.9371 17.8734 24.8504L17.3627 25.1457L17.3667 28.3783L20.8716 29.2542C19.9633 30.1834 19.4087 31.4409 19.4087 32.814V33.5707L16.2225 34.2789L16.3053 33.9896L16.3442 32.1017L10.9568 28.9589L13.2796 28.3783ZM2.04302 26.5593H2.7877L10.1343 30.8443L6.42733 45.6717L2.04302 44.2097V26.5593ZM10.3807 46.9895L8.3701 46.3196L11.9713 31.9162L14.3011 33.2749V33.5667L10.4665 46.9895H10.3807ZM17.3657 49.9303C17.3657 49.629 17.4874 49.3337 17.7009 49.1203L19.4965 47.3246C19.71 47.1112 20.0052 46.9895 20.3065 46.9895C20.938 46.9895 21.4517 47.5032 21.4517 48.1347C21.4517 48.4359 21.33 48.7312 21.1165 48.9447L19.3209 50.7403C19.1074 50.9538 18.8121 51.0755 18.5109 51.0755C17.8794 51.0755 17.3657 50.5617 17.3657 49.9303ZM20.4302 52.9948C20.4302 52.6936 20.5519 52.3983 20.7654 52.1848L22.561 50.3892C22.7745 50.1757 23.0698 50.054 23.371 50.054C24.0025 50.054 24.5162 50.5677 24.5162 51.1992C24.5162 51.5005 24.3945 51.7957 24.1811 52.0092L22.3854 53.8048C22.172 54.0183 21.8767 54.14 21.5754 54.14C20.9439 54.14 20.4302 53.6263 20.4302 52.9948ZM23.4947 56.0593C23.4947 55.7581 23.6164 55.4628 23.8299 55.2493L25.6255 53.4537C25.839 53.2402 26.1343 53.1185 26.4356 53.1185C27.067 53.1185 27.5808 53.6323 27.5808 54.2637C27.5808 54.565 27.4591 54.8603 27.2456 55.0738L25.45 56.8694C25.2365 57.0829 24.9412 57.2046 24.6399 57.2046C24.0085 57.2046 23.4947 56.6908 23.4947 56.0593ZM27.7045 60.2691C27.073 60.2691 26.5593 59.7553 26.5593 59.1239C26.5593 58.8226 26.681 58.5273 26.8944 58.3139L28.6901 56.5182C28.9035 56.3047 29.1988 56.183 29.5001 56.183C30.1316 56.183 30.6453 56.6968 30.6453 57.3283C30.6453 57.6295 30.5236 57.9248 30.3101 58.1383L28.5145 59.9339C28.301 60.1474 28.0057 60.2691 27.7045 60.2691ZM32.6444 61.2906H32.4554C32.195 61.2906 31.9456 61.1958 31.7516 61.0237L30.9875 60.3499L31.7546 59.5828C32.0284 59.3089 32.2409 58.9832 32.398 58.6336L33.3268 59.4067C33.5697 59.6092 33.7098 59.9075 33.7098 60.2252C33.7098 60.8128 33.232 61.2906 32.6444 61.2906ZM41.8051 52.097H41.6285C41.3721 52.097 41.1218 52.0062 40.9257 51.8416L35.3862 47.2254L34.0774 48.7956L39.4568 53.2776C39.6987 53.4801 39.8389 53.7784 39.8389 54.0961C39.8389 54.6837 39.361 55.1615 38.7735 55.1615H38.5505C38.3026 55.1615 38.0602 55.0737 37.8692 54.9141L32.3207 50.2909L31.0119 51.8611L36.3913 56.3437C36.6342 56.5447 36.7744 56.8429 36.7744 57.1607C36.7744 57.7482 36.2965 58.2261 35.709 58.2261C35.3169 58.2261 34.9348 58.0869 34.6341 57.837L32.3541 55.9366C31.8519 54.9101 30.8199 54.1944 29.6113 54.1515C29.5525 52.4851 28.2132 51.1458 26.5468 51.087C26.4879 49.4205 25.1487 48.0813 23.4823 48.0224C23.4224 46.3171 22.0258 44.9464 20.3065 44.9464C19.467 44.9464 18.6455 45.2866 18.052 45.8802L16.2564 47.6758C16.1491 47.783 16.0604 47.9047 15.9701 48.0254L12.8322 46.1425L15.583 36.515L22.4792 34.9817C24.2883 34.5772 26.1956 34.665 27.9598 35.2296L29.4647 35.7109L24.3631 38.2617C23.1975 38.8458 22.4732 40.0184 22.4732 41.3223V41.5243C22.4732 43.4112 24.0085 44.9464 25.8954 44.9464C26.5154 44.9464 27.1254 44.7778 27.6556 44.4581L31.4593 42.1772C32.2234 41.7193 33.249 41.8196 33.9088 42.4131L42.5398 50.1807C42.7707 50.3902 42.9034 50.6874 42.9034 50.9987C42.9034 51.6047 42.4111 52.097 41.8051 52.097ZM61.2906 40.2289L44.081 48.8345C44.0252 48.7751 43.9668 48.7187 43.9055 48.6639L35.276 40.8963C34.5199 40.214 33.5422 39.8389 32.5237 39.8389C31.779 39.8389 31.0478 40.0414 30.4074 40.4255L26.6022 42.7074C26.3887 42.8361 26.1448 42.9034 25.8954 42.9034C25.1342 42.9034 24.5162 42.2854 24.5162 41.5243V41.3223C24.5162 40.7961 24.8085 40.3242 25.2784 40.0893L30.9765 37.2402C31.9516 36.7519 33.1093 36.6427 34.1602 36.9449L40.5796 38.7785L42.1343 38.8174L61.2906 28.735V40.2289Z" fill="#2C4D82"/>
</svg>
