<svg width="64" height="64" viewBox="0 0 64 64" fill="none" xmlns="http://www.w3.org/2000/svg">
<path d="M63.0373 7.45897C62.1119 4.55116 60.8578 2.46913 60.8046 2.38162C60.599 2.04295 60.1756 1.86678 59.7921 1.95467C59.6928 1.97733 57.3245 2.52967 54.5926 3.89295C50.9045 5.7328 48.3282 8.18905 47.1414 10.9949C46.1535 13.3316 46.0115 16.1883 46.7125 19.3441C45.2195 17.6781 43.54 16.2207 41.7093 14.9937C41.1502 13.8902 39.6721 11.1734 37.3613 8.33397C36.6001 7.3992 35.1361 8.57225 35.905 9.51639C37.4621 11.4301 38.6342 13.3121 39.3672 14.6051L30.8201 12.9402L22.6996 1.87264C23.4881 1.88358 24.2793 1.95975 25.0667 2.11405C27.5628 2.60233 30.0285 3.87264 32.3964 5.88905C33.3241 6.67928 34.5289 5.241 33.6134 4.4617C30.9976 2.23436 28.2434 0.824984 25.4271 0.273812C21.128 -0.566814 16.1138 0.536703 10.9253 3.46639C7.05815 5.64999 4.4721 8.04842 4.3642 8.1492C4.01822 8.47225 3.9631 9.05897 4.25278 9.43631C4.63199 10.2137 6.06908 13.018 8.46122 16.0371C9.87133 17.8172 11.3585 19.3406 12.8968 20.5926C12.4597 20.9586 12.0344 21.3414 11.6227 21.7441C9.4241 23.893 7.74073 26.4277 6.63554 29.1988C5.65859 31.6473 5.13317 34.2812 5.10385 36.9961C5.05538 41.4355 6.34273 45.7172 8.82753 49.3789C11.2549 52.9555 14.6482 55.7016 18.6405 57.3199C19.7578 57.7719 20.4642 56.0355 19.3461 55.5824C17.8996 54.9961 16.5407 54.2449 15.2874 53.3516C15.4477 52.4633 15.8194 49.2664 13.6943 45.957C13.3968 45.4941 14.2862 43.6762 14.8171 42.5902C15.3652 41.4711 15.9309 40.3141 16.1951 39.2246C16.4758 38.0672 16.16 37.0957 15.2823 36.4141C14.638 35.9137 13.7948 35.6547 13.0516 35.4262C12.5688 35.2777 12.0215 35.1098 11.826 34.9469C11.4234 34.6098 10.7658 33.3641 10.2373 32.3637C9.65085 31.2539 9.09259 30.1977 8.5226 29.5473C9.80527 26.5035 11.8655 23.8101 14.4457 21.7496C16.8027 23.3539 19.4927 24.4609 22.352 24.6851C19.0361 27.2523 17.9633 30.5309 19.4966 33.6801C21.2871 37.3574 24.9725 36.7699 28.2239 36.2523C28.7865 36.1625 29.3686 36.0699 29.926 36.0004C30.1352 35.9742 30.1981 36.0312 30.2403 36.0684C30.9522 36.7012 30.9311 39.7234 30.9159 41.9305C30.8952 44.9832 30.8756 47.8668 32.0136 49.3473C32.5942 50.102 33.4116 50.4879 34.3698 50.4879C34.9441 50.4879 35.568 50.3496 36.2225 50.0691C39.0525 48.8582 41.9943 45.2137 41.5455 42.3301C41.1534 39.809 40.8938 38.1434 41.5056 36.8008C42.0713 35.5582 43.4388 34.4078 46.132 32.9398C46.4545 34.391 46.6171 35.9008 46.6003 37.4496C46.5428 42.7363 44.4279 47.6844 40.6455 51.3816C36.4183 55.5137 30.4773 57.5543 24.6003 56.907C23.4029 56.7773 23.196 58.6391 24.3951 58.7711C30.8279 59.4789 37.332 57.2445 41.9575 52.7223C46.0987 48.6742 48.4139 43.2578 48.4768 37.4695C48.5605 29.7949 44.6194 22.9957 38.6201 19.0789C39.8598 18.1957 40.7831 17.432 41.2953 16.9887C43.4826 18.5566 45.4228 20.4883 47.037 22.7387C50.9119 28.1422 52.4487 34.7293 51.365 41.2879C49.1269 54.8266 36.2835 64.023 22.7316 61.7859C16.1674 60.7027 10.4186 57.1309 6.54367 51.7273C2.66831 46.3242 1.13154 39.7363 2.21561 33.1781C2.41029 31.998 0.559986 31.6883 0.364517 32.8727C-0.80165 39.9254 0.851625 47.0094 5.01785 52.8199C9.18485 58.6297 15.3675 62.4711 22.4259 63.6363C23.9021 63.8797 25.3798 64 26.8474 64C32.3948 64 37.7913 62.2789 42.3899 58.9863C48.2059 54.8227 52.0508 48.6461 53.2161 41.5934C54.0703 36.4254 53.4093 31.2406 51.3561 26.5523C52.3037 26.273 53.9163 25.7309 55.6826 24.8496C59.3699 23.0098 61.9466 20.5535 63.133 17.7476C64.3207 14.941 64.2875 11.3832 63.0373 7.45897ZM8.57733 33.2387C9.27555 34.5613 9.93584 35.8113 10.6219 36.3848C11.1079 36.7906 11.7842 36.9984 12.5 37.2184C14.3339 37.7816 14.5469 38.0582 14.371 38.7828C14.1552 39.6738 13.6345 40.7379 13.1314 41.7664C12.1622 43.7477 11.247 45.618 12.1145 46.9695C13.3448 48.8852 13.5555 50.7711 13.5344 51.9441C7.94558 46.9086 5.66993 38.9551 7.75167 31.7262C8.02767 32.1988 8.31775 32.748 8.57733 33.2387ZM53.9749 14.8141L51.3084 8.35702C52.6059 7.14452 54.1114 6.23202 55.3937 5.58944C56.4859 5.04178 57.525 4.63241 58.3585 4.34217L53.9749 14.8141ZM60.0884 5.06913C60.461 5.86913 60.893 6.90077 61.262 8.06678C61.6666 9.34647 62.038 10.9324 62.1119 12.5867L55.8628 15.1629L60.0884 5.06913ZM48.8697 11.725C49.1465 11.0711 49.5042 10.4648 49.9174 9.90506L52.953 17.2547L50.229 23.7633C49.8463 22.9519 49.3955 21.8863 49.0132 20.6758C48.2458 18.2519 47.5984 14.7308 48.8697 11.725ZM54.8811 23.1531C53.8299 23.6805 52.8268 24.0797 52.0097 24.3676L54.8366 17.6148L62.0322 14.648C61.9278 15.4535 61.7288 16.2519 61.4047 17.0176C60.1338 20.0234 57.1556 22.0137 54.8811 23.1531ZM21.0467 22.6195C20.7152 22.5547 20.3879 22.4754 20.0654 22.3851L30.4503 14.7789L39.0013 16.4441C35.8863 18.8965 28.3056 24.0406 21.0467 22.6195ZM11.5559 16.7535C9.33497 14.3617 7.7071 11.8043 6.77237 10.1668L17.6541 12.2867L11.5559 16.7535ZM13.4777 4.24452L18.0306 10.4496L7.07848 8.31639C8.45731 7.2285 10.7334 5.5953 13.4777 4.24452ZM20.7453 10.9785L15.2256 3.45545C16.8781 2.77694 18.6518 2.24295 20.47 2.00545L28.1058 12.4117L20.7453 10.9785ZM20.1612 12.775L27.9436 14.2906L17.9555 21.6059C16.072 20.7367 14.3769 19.4871 12.8937 18.098L20.1612 12.775ZM45.6222 31.0836C42.2394 32.8844 40.583 34.2988 39.7972 36.0242C38.9532 37.8769 39.2624 39.8656 39.6905 42.618C39.9434 44.241 38.013 47.2633 35.4836 48.3457C34.5477 48.7461 33.8811 48.6988 33.5015 48.2047C32.756 47.2352 32.7764 44.3008 32.7924 41.9434C32.8147 38.6816 32.8342 35.8648 31.4874 34.6676C31.0031 34.2371 30.3834 34.0551 29.695 34.1395C29.1051 34.2129 28.5065 34.3082 27.9283 34.4004C24.4791 34.9496 22.3086 35.1695 21.1843 32.8598C19.3625 29.1187 23.0502 26.3476 24.7203 25.3301C25.0604 25.123 25.3759 24.8789 25.6691 24.607C29.7055 24.125 33.5195 22.3945 36.9183 20.2269C40.9935 22.6598 44.1218 26.5098 45.6222 31.0836Z" fill="#2C4D82"/>
</svg>
