<svg width="58" height="69" viewBox="0 0 58 69" fill="none" xmlns="http://www.w3.org/2000/svg">
<path d="M24.8117 68.319C18.0952 68.319 11.6468 65.4565 7.11997 60.4656C6.75245 60.0603 6.78303 59.4338 7.18826 59.0661C7.59348 58.6987 8.2199 58.7291 8.58756 59.1344C12.7396 63.7124 18.653 66.3379 24.8117 66.3379C28.3146 66.3379 31.7995 65.4901 34.8891 63.8865C37.8774 62.3356 40.5099 60.0764 42.5018 57.3531C42.8306 56.9037 42.9646 56.3533 42.8793 55.8032C42.7939 55.2531 42.4994 54.7691 42.05 54.4403C41.6007 54.1116 41.0496 53.9767 40.5001 54.0628C39.9498 54.1481 39.4659 54.4426 39.1371 54.892C35.804 59.4487 30.4487 62.1691 24.8117 62.1691C15.0323 62.1691 7.07608 54.2129 7.07608 44.4335C7.07608 41.0464 8.03351 37.7546 9.84475 34.9135C11.6096 32.1452 14.0986 29.9223 17.0424 28.4853C17.8061 28.1124 18.2772 27.2877 18.2063 26.4391C18.136 25.5976 17.5456 24.8676 16.7399 24.6197C16.2363 24.4648 15.6872 24.5082 15.2138 24.7392C11.5795 26.5132 8.50754 29.2565 6.32983 32.6727C4.09108 36.1842 2.90757 40.2509 2.90757 44.4336C2.90757 48.5821 4.07776 52.6226 6.29147 56.1186C6.58424 56.5809 6.44675 57.1928 5.98458 57.4854C5.52241 57.7783 4.91049 57.6409 4.61771 57.1786C2.20271 53.365 0.92627 48.9579 0.92627 44.4336C0.92627 39.8728 2.21708 35.4376 4.6591 31.6075C7.03323 27.8835 10.3823 24.8929 14.3445 22.9586C15.3203 22.4823 16.4234 22.4142 17.4503 22.7675C18.4773 23.1206 19.3052 23.8526 19.7816 24.8285C20.2579 25.8043 20.3259 26.9074 19.9726 27.9344C19.6194 28.9613 18.8876 29.7892 17.9117 30.2656C15.296 31.5427 13.0842 33.5182 11.5155 35.9788C9.90737 38.5009 9.05738 41.4245 9.05738 44.4336C9.05738 53.1206 16.1248 60.1881 24.8118 60.1881C29.8192 60.1881 34.5767 57.771 37.5381 53.7224C38.1793 52.8458 39.1233 52.2714 40.1965 52.1051C41.2689 51.9386 42.3433 52.2 43.2198 52.8414C44.0963 53.4825 44.6707 54.4265 44.837 55.4995C45.0035 56.5727 44.7421 57.6465 44.1008 58.5229C41.9296 61.4913 39.0599 63.9541 35.8019 65.645C32.4313 67.3943 28.631 68.319 24.8117 68.319Z" fill="#2C4D82"/>
<path d="M29.0564 13.4841C25.5664 13.4841 22.7272 10.6448 22.7272 7.15477C22.7273 3.66489 25.5665 0.825684 29.0564 0.825684C32.5464 0.825684 35.3857 3.66489 35.3857 7.1549C35.3857 10.6448 32.5464 13.4841 29.0564 13.4841ZM29.0564 2.80685C26.6589 2.80685 24.7085 4.7573 24.7085 7.15477C24.7085 9.55237 26.6591 11.5028 29.0564 11.5028C31.454 11.5028 33.4044 9.55223 33.4044 7.15477C33.4046 4.75744 31.454 2.80685 29.0564 2.80685Z" fill="#2C4D82"/>
<path d="M53.6611 49.0951C53.2593 49.0951 52.8815 48.849 52.7328 48.4505L50.7376 43.1009C50.1544 41.5101 48.6289 40.4446 46.94 40.4444H34.0903C33.5431 40.4444 33.0996 40.001 33.0996 39.4538V30.0755C33.0996 29.5283 33.5431 29.0849 34.0903 29.0849H46.0955C47.2481 29.0849 48.1857 28.1471 48.1857 26.9945C48.1857 25.842 47.2481 24.9044 46.0955 24.9044H34.0903C33.5431 24.9044 33.0996 24.4609 33.0996 23.9137V21.8838C33.0996 19.6542 31.2859 17.8405 29.0564 17.8405C26.827 17.8405 25.0132 19.6542 25.0132 21.8838V32.5906C25.0132 33.1378 24.5698 33.5812 24.0226 33.5812C23.4754 33.5812 23.0319 33.1378 23.0319 32.5906V21.8838C23.0319 18.5618 25.7344 15.8592 29.0564 15.8592C32.3783 15.8592 35.0809 18.5618 35.0809 21.8838V22.9231H46.0957C48.3406 22.9231 50.167 24.7495 50.167 26.9945C50.167 29.2396 48.3406 31.0662 46.0957 31.0662H35.0809V38.4631H46.94C49.4568 38.4633 51.7297 40.0508 52.5959 42.4137L54.5892 47.758C54.7803 48.2706 54.5198 48.8412 54.0072 49.0323C53.8931 49.075 53.7762 49.0951 53.6611 49.0951Z" fill="#2C4D82"/>
<path d="M53.9241 61.7052C53.3407 61.7052 52.7593 61.5782 52.2144 61.3256C51.2277 60.8682 50.4781 60.054 50.1036 59.0331L46.4347 49.2646C45.8506 47.6715 44.3251 46.6061 42.6362 46.6061H29.0566C25.7345 46.6061 23.032 43.9035 23.032 40.5814V36.553C23.032 36.0058 23.4755 35.5624 24.0227 35.5624C24.5699 35.5624 25.0133 36.0058 25.0133 36.553V40.5814C25.0133 42.8109 26.8272 44.6248 29.0567 44.6248H42.6365C45.1531 44.6248 47.4261 46.2124 48.2925 48.5753L51.9614 58.3438C52.3607 59.4331 53.5644 59.9906 54.6461 59.594C55.1704 59.4018 55.5884 59.017 55.8231 58.5105C56.0579 58.0041 56.0812 57.4363 55.8891 56.9122L54.1217 52.1737C53.9306 51.6611 54.191 51.0905 54.7037 50.8993C55.2164 50.708 55.7868 50.9685 55.978 51.4813L57.7474 56.225C58.1236 57.2512 58.078 58.3569 57.6207 59.3436C57.1634 60.3303 56.3492 61.0799 55.3283 61.4544C54.8709 61.6218 54.3968 61.7052 53.9241 61.7052Z" fill="#2C4D82"/>
</svg>
