<svg width="58" height="58" viewBox="0 0 58 58" fill="none" xmlns="http://www.w3.org/2000/svg">
<path d="M43.0625 57.125C43.58 57.125 44 56.705 44 56.1875V49.0719L50.3206 44.1181C51.1119 43.4881 52.1713 42.2525 52.5856 41.27L57.0481 30.8956C57.0987 30.7794 57.125 30.6519 57.125 30.5244V21.4887C57.125 20.3225 55.8031 19.4619 54.5263 19.3062C52.9438 19.1019 50.9544 19.9625 50.2044 22.9569C49.8181 24.5112 49.7319 25.8256 49.655 26.9844C49.6194 27.5 50.0094 27.9856 50.5269 28.0194C51.0444 28.055 51.4887 27.7006 51.5206 27.185C51.5975 26.0262 51.6781 24.8019 52.025 23.4087C52.2613 22.4675 52.7675 21.3106 53.8494 21.1662C54.5731 21.0631 55.1787 21.4512 55.2781 21.6275L55.25 30.3312L50.8606 40.5369C50.5869 41.1912 49.7356 42.1869 49.1581 42.6481L42.4831 47.8794C42.2562 48.0556 42.125 48.3275 42.125 48.6162V56.1875C42.125 56.705 42.545 57.125 43.0625 57.125Z" fill="#2C4D82"/>
<path d="M14.9375 57.125C14.42 57.125 14 56.705 14 56.1875V49.0719L7.67938 44.1181C6.88813 43.4881 5.82875 42.2525 5.41437 41.27L0.951875 30.8956C0.90125 30.7794 0.875 30.6519 0.875 30.5244V21.4887C0.875 20.3225 2.19687 19.4619 3.47375 19.3062C5.05625 19.1019 7.04562 19.9625 7.79562 22.9569C8.18187 24.5112 8.26813 25.8256 8.345 26.9844C8.38063 27.5 7.99062 27.9856 7.47312 28.0194C6.95563 28.055 6.51125 27.7006 6.47938 27.185C6.4025 26.0262 6.32188 24.8019 5.975 23.4087C5.73875 22.4675 5.2325 21.3106 4.15062 21.1662C3.42687 21.0631 2.82125 21.4512 2.72188 21.6275L2.75 30.3312L7.13938 40.5369C7.41313 41.1912 8.26438 42.1869 8.84188 42.6481L15.5169 47.8794C15.7437 48.0556 15.875 48.3275 15.875 48.6162V56.1875C15.875 56.705 15.455 57.125 14.9375 57.125Z" fill="#2C4D82"/>
<path d="M26.1875 57.125C25.67 57.125 25.25 56.705 25.25 56.1875V45.9444C25.25 41.9938 22.5219 38.5494 18.6144 37.5669C18.1119 37.4413 17.8081 36.9313 17.9337 36.4288C18.0594 35.9281 18.56 35.6169 19.0719 35.7481C23.8119 36.9406 27.125 41.1331 27.125 45.9444V56.1875C27.125 56.705 26.705 57.125 26.1875 57.125Z" fill="#2C4D82"/>
<path d="M15.4288 41.0319C15.1888 41.0319 14.9487 40.94 14.765 40.7581L6.53937 32.5456C6.36312 32.3694 6.26562 32.1312 6.26562 31.8819C6.26562 31.6344 6.365 31.3944 6.53937 31.2181C9.1175 28.64 12.2956 28.8575 15.2563 31.8181L19.4844 36.0369C19.85 36.4025 19.85 36.9969 19.4844 37.3625C19.1188 37.73 18.5244 37.7281 18.1588 37.3644L13.9306 33.1456C12.0087 31.2237 10.2106 30.8169 8.585 31.9381L16.0888 39.4306C16.4544 39.7962 16.4544 40.3906 16.0888 40.7581C15.9088 40.94 15.6687 41.0319 15.4288 41.0319Z" fill="#2C4D82"/>
<path d="M31.8125 57.125C31.295 57.125 30.875 56.705 30.875 56.1875V45.9444C30.875 41.1331 34.1881 36.9406 38.9281 35.7481C39.4362 35.6169 39.9388 35.9281 40.0663 36.4287C40.19 36.9312 39.8862 37.4412 39.3856 37.5669C35.4781 38.5494 32.75 41.9937 32.75 45.9444V56.1875C32.75 56.705 32.33 57.125 31.8125 57.125Z" fill="#2C4D82"/>
<path d="M42.5713 41.0319C42.3313 41.0319 42.0913 40.94 41.9075 40.7581C41.5419 40.3906 41.5419 39.7981 41.9075 39.4306L49.4112 31.9381C47.7875 30.8187 45.9875 31.2256 44.0656 33.1456L39.8375 37.3644C39.4719 37.7281 38.8775 37.73 38.5119 37.3625C38.1462 36.9969 38.1462 36.4025 38.5119 36.0369L42.74 31.8181C45.7006 28.8575 48.8787 28.64 51.4569 31.2181C51.6331 31.3944 51.7306 31.6325 51.7306 31.8819C51.7306 32.1312 51.6312 32.3694 51.4569 32.5456L43.2312 40.7581C43.0512 40.94 42.8113 41.0319 42.5713 41.0319Z" fill="#2C4D82"/>
<path d="M42.5713 41.0319C42.3313 41.0319 42.0913 40.94 41.9075 40.7581C41.5419 40.3906 41.5419 39.7981 41.9075 39.4306L49.4112 31.9381C47.7875 30.8187 45.9875 31.2256 44.0656 33.1456L39.8375 37.3644C39.4719 37.7281 38.8775 37.73 38.5119 37.3625C38.1462 36.9969 38.1462 36.4025 38.5119 36.0369L42.74 31.8181C45.7006 28.8575 48.8787 28.64 51.4569 31.2181C51.6331 31.3944 51.7306 31.6325 51.7306 31.8819C51.7306 32.1312 51.6312 32.3694 51.4569 32.5456L43.2312 40.7581C43.0512 40.94 42.8113 41.0319 42.5713 41.0319Z" fill="#2C4D82"/>
<path d="M33.1231 22.3419C32.615 22.3419 32.1069 22.3006 31.5988 22.2162C29.1725 21.8131 27.0463 20.4875 25.6119 18.4812C24.1775 16.475 23.6113 14.0337 24.0125 11.6075C24.2956 9.9125 25.9006 8.75937 27.5994 9.04437C29.2944 9.32562 30.4456 10.9362 30.1625 12.6312C30.05 13.3062 30.1775 14.0056 30.515 14.5962C30.7738 15.0462 30.6181 15.6181 30.1681 15.8769C29.7238 16.13 29.1481 15.98 28.8875 15.53C28.3344 14.5662 28.13 13.4281 28.31 12.3256C28.4225 11.6487 27.9631 11.0056 27.2881 10.8931C26.6094 10.7862 25.97 11.2381 25.8575 11.915C25.5369 13.8462 25.9888 15.7906 27.1325 17.39C28.2763 18.9894 29.9713 20.0469 31.9025 20.3675C32.4331 20.4537 32.9713 20.4875 33.4963 20.4575C34.0231 20.4462 34.4563 20.8287 34.4806 21.3444C34.5088 21.8619 34.1113 22.3025 33.5938 22.3306C33.4419 22.3381 33.2825 22.3419 33.1231 22.3419Z" fill="#2C4D82"/>
<path d="M27.6612 35C26.8025 35 25.8894 34.9175 24.9144 34.7375C22.3794 34.2687 20.3112 32.81 19.0887 30.6256C18.2469 29.1237 17.5419 26.7744 18.0162 23.3319C17.6694 23.495 17.33 23.5962 17.0019 23.675C15.7025 23.9881 13.8387 23.4406 12.755 22.4319C11.9337 21.665 11.5756 20.6694 11.75 19.6287C11.9019 18.7306 12.3444 18.0162 13.0306 17.5606C13.8125 17.0431 14.7519 16.9587 15.4062 16.9981C16.715 13.5406 19.4769 11.8475 22.6194 12.65C24.005 13.0044 25.1319 13.8612 25.8762 15.1269C27.2319 17.4275 27.1119 20.555 26.5475 22.7131C26.4181 23.2137 25.9119 23.5119 25.4056 23.3844C24.9031 23.2531 24.6031 22.7412 24.7362 22.2406C25.1806 20.5269 25.325 17.8869 24.2619 16.0794C23.7669 15.2412 23.0581 14.6975 22.1544 14.4669C19.7712 13.8537 17.8381 15.29 16.9512 18.29C16.8087 18.7662 16.3269 19.0475 15.8356 18.9369C15.53 18.8675 14.6075 18.7662 14.0637 19.13C13.9062 19.2369 13.6869 19.4356 13.6006 19.9437C13.5744 20.0956 13.4956 20.5606 14.0337 21.0631C14.765 21.7437 16.025 21.9837 16.5631 21.8544C17.2269 21.695 18.11 21.4812 19.0606 19.1169C19.1675 18.8094 19.28 18.4962 19.4037 18.1775C19.5856 17.7012 20.1106 17.4537 20.5962 17.63C21.0762 17.8025 21.3313 18.3256 21.17 18.8094C21.0556 19.145 20.9431 19.4562 20.8269 19.7469C19.4075 23.8625 19.3719 27.2937 20.7256 29.7125C21.6706 31.4 23.2794 32.5306 25.2575 32.8962C33.5825 34.43 36.725 27.935 38.5981 24.05C39.2337 22.73 39.6181 21.935 40.1619 21.5469C40.3287 21.4287 40.6588 21.2487 41.1069 21.0125C43.3381 19.8406 48.5656 17.0937 49.1562 11.9469C49.6531 7.65124 46.55 3.57499 42.245 2.86062C40.205 2.51937 38.135 2.99749 36.4419 4.20687C34.7506 5.41624 33.6312 7.21249 33.29 9.26374C33.2412 9.66499 32.9337 10.1244 32.5381 10.2031C31.3025 10.4487 30.3706 11.4031 30.1662 12.6312C29.9581 13.8819 30.5769 15.1306 31.7075 15.74C32.1631 15.9856 32.3337 16.5537 32.0881 17.0094C31.8406 17.465 31.2762 17.6356 30.8169 17.3919C28.9812 16.4037 27.9744 14.3675 28.3156 12.3237C28.6062 10.5725 29.8569 9.12124 31.5162 8.54187C32.0094 6.17937 33.3594 4.10374 35.3487 2.68249C37.4469 1.18062 40.0044 0.588118 42.5506 1.00999C47.825 1.88562 51.6237 6.88812 51.0181 12.1606C50.3112 18.2937 44.2569 21.4737 41.9769 22.6719C41.6356 22.8519 41.3806 22.9794 41.2512 23.0694C41.0694 23.2381 40.6344 24.14 40.2837 24.8637C38.6412 28.2725 35.3937 35 27.6612 35Z" fill="#2C4D82"/>
</svg>
