<svg width="58" height="58" viewBox="0 0 58 58" fill="none" xmlns="http://www.w3.org/2000/svg">
<path d="M57.8031 47.9034C57.4406 46.4118 56.0423 45.4382 54.5611 45.5418L51.7128 37.96C51.6092 37.6907 51.402 37.4732 51.1431 37.3696C50.8842 37.2557 50.5838 37.266 50.3248 37.3799L29.682 46.6708C29.4541 46.6397 29.2262 46.6086 28.9984 46.6086C28.7705 46.6086 28.5426 46.6397 28.3147 46.6708L7.67187 37.3799C7.41293 37.266 7.11256 37.2557 6.85361 37.3696C6.58432 37.4835 6.37716 37.6907 6.28394 37.96L3.44594 45.5314C2.83483 45.5004 2.23409 45.6454 1.69549 45.9768C0.980806 46.4118 0.483637 47.0955 0.286841 47.9034C0.0900447 48.7113 0.224695 49.5399 0.64936 50.2546C1.08438 50.9589 1.76799 51.4664 2.56553 51.6528L28.263 57.8882C28.5012 57.9503 28.7498 57.971 28.9984 57.971C29.2469 57.971 29.4852 57.94 29.7337 57.8882L55.5244 51.6528C56.3323 51.456 57.0159 50.9589 57.4406 50.2546C57.8756 49.5399 57.9999 48.7113 57.8031 47.9034ZM50.1695 39.7208L50.9049 41.6887L43.1366 44.5993C42.598 44.7961 42.3287 45.3968 42.5255 45.9354C42.6809 46.3497 43.0848 46.6086 43.4991 46.6086C43.6234 46.6086 43.7477 46.5879 43.8616 46.5465L51.6299 43.636L52.5103 45.9975L34.6744 50.3063C34.1979 49.2291 33.4211 48.3384 32.4578 47.6962L50.1695 39.7208ZM28.9984 51.6736L25.3939 50.8035C26.1086 49.5192 27.4654 48.6905 28.9984 48.6905C30.5313 48.6905 31.8881 49.5295 32.6028 50.8139L28.9984 51.6736ZM7.82724 39.7208L25.5285 47.6858C24.5756 48.328 23.7988 49.2188 23.3223 50.296L5.4864 45.9665L6.3668 43.6256L14.1351 46.5361C14.249 46.5879 14.3733 46.6086 14.4976 46.6086C14.9119 46.6086 15.3158 46.3497 15.4712 45.9354C15.668 45.3968 15.3987 44.8064 14.8601 44.5993L7.09184 41.6887L7.82724 39.7208ZM2.41017 49.1774C2.26516 48.9391 2.22373 48.6595 2.28587 48.3902C2.34802 48.1209 2.5241 47.8826 2.76233 47.748C2.91769 47.6444 3.10413 47.5926 3.28021 47.5926C3.36307 47.5926 3.44594 47.603 3.53915 47.6237L23.6952 52.5125C23.7056 52.5125 23.7159 52.5229 23.7263 52.5229H23.7677L24.1717 52.6161L24.3788 54.8016L3.05234 49.6434C2.78304 49.5709 2.55517 49.4052 2.41017 49.1774ZM29.2469 55.8788C29.0812 55.9202 28.9155 55.9202 28.7601 55.8788L26.5125 55.3298L26.3054 53.1443L28.7601 53.7451C28.9259 53.7865 29.0916 53.7865 29.2469 53.7451L31.7017 53.1547L31.4946 55.3402L29.2469 55.8788ZM55.6694 49.1774C55.5244 49.4156 55.2965 49.5813 55.0272 49.6434L33.6179 54.8223L33.825 52.6368L34.2393 52.5332H34.2601C34.2601 52.5332 34.2704 52.5332 34.2704 52.5229L54.5301 47.6237C55.0894 47.489 55.6487 47.8309 55.7833 48.3902C55.8558 48.6595 55.8144 48.9391 55.6694 49.1774Z" fill="#2C4D82"/>
<path d="M20.7122 26.3801V27.9648V34.1794C20.7122 35.557 21.6133 36.7067 22.8562 37.121C23.2706 40.1351 25.8703 42.4656 28.9984 42.4656C32.1264 42.4656 34.7262 40.1351 35.1405 37.121C36.3834 36.7067 37.2845 35.557 37.2845 34.1794V27.9648V26.3801C41.7694 23.2521 44.0999 17.9903 43.3645 12.5215C42.5048 6.04793 37.1602 0.8173 30.6659 0.0922618C26.5436 -0.373834 22.4109 0.941592 19.3346 3.68638C16.2584 6.44152 14.4976 10.3774 14.4976 14.4998C14.4976 19.2643 16.8074 23.6664 20.7122 26.3801ZM35.213 29.0006V31.0721H22.7837V29.0006H35.213ZM28.9984 40.394C27.0718 40.394 25.4664 39.0682 25.0003 37.2867H32.9964C32.5303 39.0682 30.9249 40.394 28.9984 40.394ZM34.1772 35.2152H23.8195C23.2498 35.2152 22.7837 34.7491 22.7837 34.1794V33.1436H35.213V34.1794C35.213 34.7491 34.7469 35.2152 34.1772 35.2152ZM20.7122 5.22968C23.022 3.1685 25.9118 2.07058 28.9776 2.07058C29.4541 2.07058 29.9409 2.10165 30.4277 2.15344C35.9898 2.7749 40.5679 7.24943 41.3033 12.8011C41.9558 17.6589 39.7911 22.3199 35.6791 24.9611C35.389 25.1475 35.213 25.479 35.213 25.8311V26.929H30.0341V15.5356H33.1414C33.7111 15.5356 34.1772 15.0695 34.1772 14.4998C34.1772 13.9301 33.7111 13.464 33.1414 13.464H24.8553C24.2856 13.464 23.8195 13.9301 23.8195 14.4998C23.8195 15.0695 24.2856 15.5356 24.8553 15.5356H27.9626V26.929H22.7837V25.8311C22.7837 25.479 22.6077 25.1475 22.3073 24.9611C18.7132 22.6513 16.5691 18.7465 16.5691 14.4998C16.5691 10.9678 18.0813 7.59123 20.7122 5.22968Z" fill="#2C4D82"/>
<path d="M48.678 15.5356H52.8211C53.3907 15.5356 53.8568 15.0695 53.8568 14.4998C53.8568 13.9301 53.3907 13.4641 52.8211 13.4641H48.678C48.1083 13.4641 47.6422 13.9301 47.6422 14.4998C47.6422 15.0695 48.1083 15.5356 48.678 15.5356Z" fill="#2C4D82"/>
<path d="M48.678 9.32098C48.8333 9.32098 48.9887 9.28991 49.1441 9.20704L53.2872 7.13551C53.7947 6.87656 54.0018 6.2551 53.7533 5.74758C53.4943 5.24005 52.8728 5.0329 52.3653 5.28148L48.2222 7.35302C47.7147 7.61196 47.5076 8.23342 47.7561 8.74095C47.9322 9.11382 48.2947 9.32098 48.678 9.32098Z" fill="#2C4D82"/>
<path d="M49.1441 19.7926C48.6262 19.5336 48.0047 19.7408 47.7561 20.2587C47.4972 20.7662 47.7043 21.3877 48.2222 21.6466L52.3653 23.7181C52.5103 23.7906 52.6657 23.8217 52.821 23.8217C53.2043 23.8217 53.5668 23.6146 53.7532 23.252C54.0122 22.7445 53.805 22.123 53.2871 21.8641L49.1441 19.7926Z" fill="#2C4D82"/>
<path d="M5.17569 15.5356H9.31877C9.88844 15.5356 10.3545 15.0695 10.3545 14.4998C10.3545 13.9301 9.88844 13.4641 9.31877 13.4641H5.17569C4.60602 13.4641 4.13992 13.9301 4.13992 14.4998C4.13992 15.0695 4.60602 15.5356 5.17569 15.5356Z" fill="#2C4D82"/>
<path d="M4.70957 7.13549L8.85264 9.20703C9.00801 9.28989 9.16337 9.32096 9.31874 9.32096C9.70197 9.32096 10.0645 9.11381 10.2509 8.75129C10.5099 8.24376 10.3027 7.6223 9.78483 7.36336L5.64176 5.29182C5.12387 5.03288 4.50241 5.24003 4.25383 5.74756C3.99488 6.26544 4.20204 6.88691 4.70957 7.13549Z" fill="#2C4D82"/>
<path d="M8.85266 19.7926L4.70958 21.8641C4.20205 22.1231 3.9949 22.7445 4.24349 23.2521C4.42992 23.6146 4.79244 23.8217 5.17568 23.8217C5.33104 23.8217 5.48641 23.7907 5.64177 23.7078L9.78485 21.6363C10.2924 21.3773 10.4995 20.7558 10.2509 20.2483C9.992 19.7408 9.37054 19.5336 8.85266 19.7926Z" fill="#2C4D82"/>
</svg>
